<svg width="44" height="30" viewBox="0 0 44 30" fill="none" xmlns="http://www.w3.org/2000/svg">
<path fill-rule="evenodd" clip-rule="evenodd" d="M2.00809 29.5939H1.87304C1.87304 29.5265 1.83922 29.425 1.83922 29.391C1.83922 29.3574 1.83922 29.29 1.73775 29.29H1.53482V29.5939H1.43336V28.8841H1.73775C1.87304 28.8841 1.97426 28.9182 1.97426 29.053C1.97426 29.1544 1.94044 29.1885 1.90686 29.2218C1.94069 29.2559 1.97426 29.2897 1.97426 29.3574V29.4924C1.97426 29.5265 1.97426 29.5265 2.00809 29.5265V29.5939ZM1.87304 29.087C1.87304 28.9856 1.8054 28.9856 1.77158 28.9856H1.53482V29.1885H1.73775C1.8054 29.1885 1.87304 29.1544 1.87304 29.087ZM2.44777 29.2221C2.44777 28.8167 2.1098 28.4783 1.67011 28.4783C1.26449 28.4783 0.92627 28.8167 0.92627 29.2221C0.92627 29.6615 1.26449 30 1.67011 30C2.10955 29.9998 2.44777 29.6615 2.44777 29.2221ZM2.34631 29.2221C2.34631 29.5941 2.04215 29.8645 1.67011 29.8645C1.29807 29.8645 1.02774 29.5939 1.02774 29.2221C1.02774 28.8841 1.29831 28.5797 1.67011 28.5797C2.04191 28.5797 2.34631 28.8841 2.34631 29.2221ZM43.9999 15.5631C43.9999 16.5775 43.3575 17.0503 42.2078 17.0503H40.0106V16.0359H42.2078C42.4107 16.0359 42.5799 16.0023 42.6477 15.9349C42.7151 15.867 42.7828 15.7656 42.7828 15.6305C42.7828 15.495 42.7154 15.3599 42.6477 15.2925C42.5799 15.2247 42.4448 15.1911 42.2419 15.1911C41.1941 15.157 39.8753 15.2247 39.8753 13.7372C39.8753 13.0608 40.3148 12.3169 41.498 12.3169H43.7631V13.3314H41.6669C41.4645 13.3314 41.3289 13.3314 41.2275 13.3988C41.126 13.5002 41.0586 13.6017 41.0586 13.7708C41.0586 13.9399 41.1601 14.0414 41.2951 14.1093C41.4306 14.1428 41.5659 14.1767 41.735 14.1767H42.3433C42.9857 14.1767 43.3916 14.3117 43.6622 14.5487C43.8646 14.7852 43.9999 15.0899 43.9999 15.5631ZM39.2327 14.5487C38.9621 14.3117 38.5563 14.1767 37.9139 14.1767H37.3056C37.1367 14.1767 37.0012 14.1426 36.8661 14.1093C36.7306 14.0414 36.6296 13.9399 36.6296 13.7708C36.6296 13.6017 36.6632 13.5002 36.7985 13.3988C36.9 13.3314 37.035 13.3314 37.2379 13.3314H39.3342V12.3169H37.0691C35.8517 12.3169 35.4459 13.0608 35.4459 13.7372C35.4459 15.2244 36.7647 15.157 37.8129 15.1911C38.0154 15.1911 38.1509 15.2247 38.2183 15.2925C38.2857 15.3599 38.3538 15.495 38.3538 15.6305C38.3538 15.7656 38.2859 15.867 38.2183 15.9349C38.1168 16.0023 37.9818 16.0359 37.7788 16.0359H35.5811V17.0503H37.7788C38.9281 17.0503 39.5707 16.5773 39.5707 15.5631C39.5707 15.0899 39.4356 14.7852 39.2327 14.5487ZM34.9049 16.0702H32.2345V15.1234H34.8375V14.1772H32.2345V13.2978H34.9049V12.3174H31.1186V17.0506H34.9049V16.0702ZM29.9012 12.5542C29.5292 12.3513 29.0898 12.3172 28.515 12.3172H25.912V17.0503H27.0612V15.3261H28.2785C28.6839 15.3261 28.9209 15.3602 29.09 15.5291C29.2929 15.7656 29.2929 16.1714 29.2929 16.4758V17.0503H30.4083V16.1374C30.4083 15.6979 30.3747 15.495 30.2395 15.2585C30.138 15.1229 29.9356 14.9541 29.665 14.8526C29.9689 14.7516 30.4765 14.3458 30.4765 13.6017C30.4762 13.061 30.2733 12.7566 29.9012 12.5542ZM23.4775 12.3172H19.8598L18.4059 13.8725L17.0197 12.3172H12.4554V17.0503H16.9523L18.4062 15.495L19.7924 17.0503H21.9901V15.4617H23.4101C24.3904 15.4617 25.3713 15.1911 25.3713 13.8725C25.371 12.5878 24.3566 12.3172 23.4775 12.3172ZM28.9883 14.2784C28.8194 14.3458 28.6503 14.3458 28.4474 14.3458L27.0612 14.3798V13.2975H28.4474C28.6503 13.2975 28.8532 13.2975 28.9883 13.399C29.1238 13.4669 29.2248 13.6019 29.2248 13.8049C29.2248 14.0078 29.1238 14.1769 28.9883 14.2784ZM23.4775 14.5149H21.9898V13.2975H23.4775C23.8834 13.2975 24.1537 13.4669 24.1537 13.8725C24.1537 14.2784 23.8831 14.5149 23.4775 14.5149ZM19.1159 14.6837L20.8739 12.8245V16.6449L19.1159 14.6837ZM16.3773 16.0702H13.5711V15.1234H16.0729V14.1772H13.5711V13.2978H16.4111L17.6621 14.684L16.3773 16.0702ZM40.8554 8.90238H39.2327L37.1026 5.35229V8.90238H34.804L34.364 7.85414H31.9975L31.558 8.90238H30.2392C29.6983 8.90238 28.9883 8.76709 28.5829 8.36123C28.2109 7.95561 28.0079 7.4147 28.0079 6.56939C28.0079 5.85937 28.1094 5.217 28.6162 4.70992C28.9542 4.33787 29.563 4.16901 30.3404 4.16901H31.4223V5.18342H30.3404C29.9351 5.18342 29.6981 5.25107 29.4616 5.454C29.2586 5.65693 29.1572 6.02873 29.1572 6.53582C29.1572 7.0429 29.2586 7.41495 29.4616 7.6517C29.6304 7.82056 29.9351 7.88821 30.239 7.88821H30.7463L32.369 4.16925H34.0596L35.9529 8.63205V4.16901H37.7112L39.706 7.44852V4.16901H40.8552L40.8554 8.90238ZM27.4332 4.16901H26.284V8.90238H27.4332V4.16901ZM25.0326 4.37194C24.6605 4.16901 24.2552 4.16901 23.6804 4.16901H21.0769V8.90238H22.1925V7.17795H23.4096C23.8155 7.17795 24.086 7.21177 24.2549 7.38088C24.4578 7.61763 24.4238 8.0235 24.4238 8.29383V8.90238H25.573V7.95561C25.573 7.54999 25.5394 7.34706 25.3706 7.1103C25.2691 6.97501 25.0662 6.8059 24.8296 6.70468C25.1336 6.56939 25.6411 6.1976 25.6411 5.45376C25.6414 4.91285 25.4044 4.60845 25.0326 4.37194ZM20.2654 7.92203H17.6282V6.97526H20.2316V5.99491H17.6282V5.1496H20.2654V4.16925H16.4788V8.90263H20.2654V7.92203ZM15.6335 4.16901H13.774L12.3878 7.38088L10.9001 4.16901H9.07445V8.6318L7.14732 4.16901H5.45696L3.42837 8.90238H4.64547L5.08491 7.85414H7.45148L7.89092 8.90238H10.1901V5.18342L11.8466 8.90238H12.827L14.4838 5.18342V8.90238H15.6332L15.6335 4.16901ZM33.9587 6.83997L33.1808 4.98049L32.4033 6.83997H33.9587ZM24.1537 6.09637C23.9848 6.19784 23.8157 6.19784 23.579 6.19784H22.1925V5.14985H23.5787C23.7817 5.14985 24.0179 5.14985 24.1535 5.21749C24.2885 5.31896 24.3564 5.45425 24.3564 5.65693C24.3564 5.85962 24.2887 6.02849 24.1537 6.09637ZM5.49053 6.83997L6.2682 4.98049L7.04586 6.83997H5.49053ZM43.6622 0H24.4238H3.3943V6.36671L4.78051 3.22248H7.72181L8.12767 4.00014V3.22248H11.5763L12.354 4.91285L13.0978 3.22248H24.0861C24.5929 3.22248 25.0323 3.32395 25.3708 3.59428V3.22248H28.3797V3.59428C28.8866 3.3237 29.529 3.22248 30.273 3.22248H34.6344L35.0402 4.00014V3.22248H38.2521L38.7256 4.00014V3.22248H41.8696V9.84915H38.6918L38.0835 8.83498V9.84915H34.1275L33.6881 8.76734H32.7072L32.2678 9.84915H30.2056C29.3942 9.84915 28.7854 9.64622 28.38 9.44354V9.84915H23.4775V8.32765C23.4775 8.12472 23.4437 8.0909 23.3084 8.0909H23.1395V9.84891H13.6725V9.0036L13.3346 9.84891H11.3398L11.0018 9.03742V9.84891H7.18115L6.77553 8.76709H5.79493L5.35549 9.84891H3.3943L3.42837 21.1158H43.6622L43.7296 17.6927C43.2901 17.8956 42.6813 17.9971 42.0728 17.9971H39.1312V17.5912C38.7933 17.862 38.1845 17.9971 37.61 17.9971H28.3459V16.4758C28.3459 16.2729 28.3123 16.2729 28.143 16.2729H27.9741V17.9971H24.9311V16.2053C24.4243 16.4418 23.8493 16.4418 23.3422 16.4418H23.004V17.9971H19.285L18.4062 16.9827L17.4258 17.9971H11.441V11.3707H17.5268L18.4059 12.3846L19.3527 11.3707H23.4437C23.9167 11.3707 24.6946 11.4381 25.0326 11.776V11.3707H28.6839C29.0559 11.3707 29.7662 11.4381 30.2392 11.776V11.3707H35.7503V11.7763C36.0547 11.5057 36.6296 11.3709 37.1365 11.3709H40.213V11.7763C40.5515 11.5398 41.0245 11.3709 41.6333 11.3709H43.7296L43.6622 0Z" fill="#E4E7E9"/>
</svg>
