<svg width="59" height="21" viewBox="0 0 59 21" fill="none" xmlns="http://www.w3.org/2000/svg">
<path d="M39.8201 0.692057C39.6361 0.692141 39.4539 0.728955 39.2839 0.800395C39.114 0.871835 38.9596 0.976499 38.8296 1.1084C38.5726 1.36862 38.4185 1.73618 38.4185 2.11349V19.2703C38.4185 19.6476 38.5662 20.0087 38.8296 20.2754C38.9596 20.4073 39.1141 20.5119 39.2841 20.5833C39.4541 20.6547 39.6364 20.6914 39.8204 20.6914C40.0044 20.6914 40.1867 20.6547 40.3567 20.5833C40.5267 20.5119 40.6812 20.4073 40.8112 20.2754C41.0681 20.0152 41.2223 19.6476 41.2223 19.2703V2.11284C41.2223 1.73553 41.0746 1.37448 40.8112 1.10775C40.6811 0.975771 40.5267 0.871062 40.3566 0.79962C40.1865 0.728178 40.0042 0.691405 39.8201 0.691406V0.692057ZM18.4674 6.73951C18.4674 5.95496 17.8398 5.31872 17.0671 5.31872C16.2943 5.31872 15.6667 5.95496 15.6667 6.73951V19.269C15.6667 20.0535 16.2943 20.6898 17.0671 20.6898C17.8398 20.6898 18.4674 20.0535 18.4674 19.269V6.73951Z" fill="#D1CECE"/>
<path d="M19.0001 2.37502C18.9916 2.81552 18.8123 3.23512 18.5006 3.54376C18.189 3.85204 17.7699 4.02474 17.3334 4.02474C16.8969 4.02474 16.4779 3.85204 16.1663 3.54376C15.8545 3.23512 15.6752 2.81552 15.6667 2.37502C15.6666 1.92864 15.8422 1.50046 16.1549 1.18465C16.3095 1.0283 16.4931 0.904256 16.6953 0.819615C16.8975 0.734975 17.1142 0.691406 17.3331 0.691406C17.552 0.691406 17.7688 0.734975 17.9709 0.819615C18.1731 0.904256 18.3567 1.0283 18.5113 1.18465C18.8241 1.50046 18.9997 1.92864 18.9995 2.37502H19.0001Z" fill="#EEEEEE"/>
<path d="M36.4777 9.87594C35.1363 6.91011 31.9628 4.81415 28.3419 5.1766C27.1211 5.30261 25.9468 5.70302 24.911 6.34644C23.8749 6.99029 23.0053 7.8595 22.3704 8.88608C21.7352 9.91323 21.3517 11.0698 21.2498 12.2656C21.1474 13.4617 21.3304 14.6653 21.7829 15.7801C22.2353 16.8953 22.9456 17.8932 23.8583 18.6959C24.7708 19.4981 25.8609 20.0832 27.0434 20.4057C28.2257 20.728 29.4685 20.7784 30.6741 20.5529C31.8797 20.3274 33.0154 19.8321 33.9921 19.1059C34.1564 18.9828 34.2904 18.8255 34.3844 18.6453C34.4784 18.4653 34.5303 18.2666 34.5354 18.0642C34.5459 17.7051 34.4101 17.3566 34.1578 17.0953C33.9055 16.8339 33.5572 16.6809 33.1896 16.67C32.8736 16.6601 32.5637 16.7563 32.3115 16.9424C31.3449 17.6713 30.1433 18.0388 28.9236 17.9785C27.9329 17.9292 26.9777 17.6027 26.1717 17.0381C25.3623 16.4742 24.7342 15.6966 24.3613 14.7965C24.3104 14.6752 24.3073 14.5397 24.3526 14.4163C24.3978 14.2928 24.4882 14.1901 24.6064 14.1278C24.6847 14.0868 24.7722 14.0653 24.8611 14.0653H34.5533C35.0203 14.0672 35.4773 13.9334 35.8661 13.6809C36.2549 13.4284 36.5581 13.0687 36.7369 12.6474C36.856 12.3678 36.9175 12.0679 36.918 11.765C36.8984 11.1149 36.752 10.4744 36.4866 9.87781L36.4777 9.87594ZM29.1661 7.84373C30.2038 7.84397 31.2175 8.14831 32.076 8.71735C32.9351 9.28706 33.5995 10.0953 33.9831 11.0376C34.0155 11.118 34.0276 11.2048 34.0183 11.2907C34.0087 11.3766 33.9778 11.4588 33.9283 11.5304C33.8788 11.6019 33.8121 11.6606 33.7342 11.7013C33.6562 11.7421 33.5692 11.7636 33.4807 11.7638H24.8509C24.7624 11.7639 24.6753 11.7424 24.5974 11.7013C24.5194 11.6601 24.4528 11.6013 24.4029 11.5307C24.353 11.4601 24.3223 11.377 24.3133 11.2907C24.304 11.2048 24.3161 11.118 24.3485 11.0376C24.7322 10.0953 25.3965 9.28706 26.2556 8.71735C27.1155 8.15115 28.1283 7.84709 29.1655 7.84373H29.1661ZM51.8354 17.9835C50.8406 17.9838 49.8668 17.7041 49.0305 17.178C48.1934 16.6498 47.5275 15.8999 47.1106 15.0158C46.6982 14.1307 46.5549 13.1484 46.6978 12.186C46.8408 11.2235 47.264 10.3215 47.917 9.58723L45.8051 7.82685C45.1214 8.60226 44.6016 9.50213 44.2756 10.4746C43.9488 11.4471 43.8216 12.473 43.9012 13.4936C43.9806 14.514 44.266 15.5095 44.7332 16.4225C45.2069 17.3351 45.8604 18.1474 46.6562 18.8128C47.4517 19.4781 48.3738 19.9835 49.3697 20.3001C50.3652 20.6167 51.4151 20.7377 52.4588 20.6563C53.5027 20.5749 54.5197 20.2924 55.4512 19.8252C56.3832 19.3583 57.2116 18.7163 57.8888 17.936L55.777 16.1763C55.291 16.7426 54.6837 17.1978 53.9979 17.5099C53.3126 17.8221 52.5654 17.9836 51.8092 17.9829L51.8354 17.9835Z" fill="#D1CECE"/>
<path d="M51.4079 5.13587C50.3183 5.13444 49.2414 5.38423 48.2509 5.86811C47.2597 6.35211 46.3782 7.05859 45.6667 7.93922L47.6757 9.77276C48.5314 8.7216 49.7424 8.07385 51.0444 7.97081C52.3465 7.86777 53.6339 8.31782 54.6259 9.22276C55.618 10.1292 56.2346 11.4164 56.3417 12.8046C56.4482 14.193 56.036 15.5701 55.195 16.6363L57.2039 18.4692C58.1387 17.2893 58.7382 15.8496 58.932 14.3192C59.1254 12.7883 58.9047 11.2304 58.2957 9.82873C57.687 8.42769 56.7152 7.24137 55.4948 6.40965C54.2732 5.58101 52.8559 5.13927 51.4079 5.13587V5.13587Z" fill="#EEEEEE"/>
<path d="M12.9614 17.0059C12.7208 16.8023 12.4161 16.6851 12.0978 16.6738C11.7795 16.6626 11.4669 16.7579 11.2118 16.944C10.4441 17.5176 9.5273 17.87 8.56511 17.9614C7.60291 18.0529 6.6337 17.8797 5.76706 17.4615C4.90034 17.0425 4.17033 16.3961 3.65894 15.5948C3.14763 14.7926 2.87589 13.8671 2.87431 12.9223C2.87272 11.9775 3.14136 11.0511 3.64998 10.2473C4.15818 9.44407 4.88611 8.7954 5.7517 8.37436C6.61687 7.95291 7.58566 7.77641 8.54831 7.86489C9.51097 7.95336 10.429 8.30325 11.1984 8.87493C11.4505 9.06465 11.7618 9.16408 12.08 9.15657C12.3983 9.14906 12.7043 9.03507 12.9467 8.83368C13.1036 8.70245 13.2284 8.53997 13.3116 8.35686C13.3948 8.17376 13.4371 7.97378 13.4333 7.77255C13.4294 7.57133 13.3782 7.37385 13.286 7.19449C13.1938 7.01514 13.0607 6.85703 12.8987 6.73454C11.7193 5.85323 10.3106 5.31201 8.83226 5.17222C7.35336 5.03195 5.86379 5.29934 4.53276 5.94403C3.20173 6.58871 2.08258 7.58486 1.30243 8.81931C0.521101 10.0539 0.108495 11.4769 0.111096 12.9281C0.113698 14.3792 0.531404 15.8009 1.31715 17.0328C2.10268 18.2634 3.22548 19.2547 4.5584 19.8945C5.89133 20.5343 7.38114 20.7971 8.85915 20.653C10.3369 20.5083 11.7436 19.9626 12.9198 19.0775C13.0797 18.9551 13.2097 18.7996 13.3004 18.6221C13.391 18.4446 13.4402 18.2497 13.4441 18.0514C13.4482 17.8531 13.4071 17.6565 13.3237 17.4757C13.2403 17.2948 13.1168 17.1344 12.9621 17.0059H12.9614Z" fill="#D1CECE"/>
</svg>
