<svg width="47" height="30" viewBox="0 0 47 30" fill="none" xmlns="http://www.w3.org/2000/svg">
<path d="M32.13 29.9998C40.3315 30.0401 47.057 23.314 46.9996 15.1302C47.0563 6.72279 40.3315 -0.00263872 32.13 7.76664e-07H15.6958C7.39595 -0.00197884 0.670521 6.72279 0.564941 15.1302C0.670521 23.314 7.39595 30.0394 15.6952 29.9998H32.13V29.9998Z" fill="#B3B5B9"/>
<path d="M1.60889 15.1302C1.69071 7.28631 7.95885 1.01751 15.6959 1.04391C23.4243 1.01751 29.6931 7.28631 29.7822 15.1309C29.6931 22.7518 23.4243 29.0206 15.6959 28.9565C7.95885 29.0206 1.69071 22.7511 1.60889 15.1302V15.1302Z" fill="white"/>
<path d="M12.5648 6.78284C9.32289 8.24578 6.8906 11.3736 6.82593 15.1302C6.8906 18.7457 9.20675 21.9302 12.5648 23.217V6.78284ZM18.8257 23.2176C22.1759 21.9309 24.4914 18.7457 24.5646 15.1309C24.4914 11.2931 22.1752 8.10786 18.8257 6.7835V23.2176Z" fill="#B3B5B9"/>
</svg>
