<svg width="119" height="21" viewBox="0 0 119 21" fill="none" xmlns="http://www.w3.org/2000/svg">
<path fill-rule="evenodd" clip-rule="evenodd" d="M0.0515137 0.999129H5.22365C6.18815 0.999129 7.152 1.08686 8.02812 1.21847C12.5861 1.87588 16.1802 4.28679 16.1802 10.6854C16.1802 17.0407 12.5861 19.4942 8.02812 20.1078C7.152 20.2394 6.18751 20.2826 5.22365 20.2826H0.0515137V0.999129ZM117.335 3.9352C118.035 3.9352 118.562 3.4094 118.562 2.62039C118.562 1.83201 118.035 1.26171 117.335 1.26171C116.633 1.26171 116.106 1.83137 116.106 2.62039C116.106 3.4094 116.633 3.9352 117.335 3.9352ZM117.335 0.955259C117.554 0.955176 117.77 0.998187 117.972 1.08184C118.174 1.16549 118.358 1.28814 118.512 1.44278C118.667 1.59742 118.79 1.78101 118.873 1.98307C118.957 2.18513 119 2.4017 119 2.62039C119 2.83913 118.957 3.05576 118.874 3.2579C118.79 3.46003 118.667 3.6437 118.513 3.79841C118.358 3.95312 118.174 4.07582 117.972 4.15951C117.77 4.2432 117.554 4.28624 117.335 4.28616C117.116 4.28616 116.9 4.24307 116.697 4.15938C116.495 4.07568 116.312 3.95301 116.157 3.79836C116.003 3.6437 115.88 3.4601 115.796 3.25804C115.712 3.05598 115.669 2.83942 115.669 2.62071C115.669 2.402 115.712 2.18543 115.796 1.98337C115.88 1.7813 116.003 1.5977 116.157 1.44305C116.312 1.2884 116.495 1.16573 116.697 1.08203C116.9 0.998335 117.116 0.955259 117.335 0.955259V0.955259ZM117.335 2.8836L117.246 2.752H117.028V3.54101H116.676V1.65653H117.421C117.859 1.65653 118.123 1.83201 118.123 2.2262C118.123 2.53265 117.903 2.70813 117.597 2.752L118.123 3.54101H117.728L117.335 2.8836ZM117.335 1.91975H117.378C117.553 1.91975 117.728 1.96362 117.728 2.18297C117.728 2.44618 117.554 2.48941 117.378 2.48941H117.028V1.91975H117.335ZM105.151 9.19445C106.597 9.01897 107.78 8.40543 107.78 6.56482C107.78 4.81195 106.598 4.32939 105.151 4.11068H102.52V9.28282H103.747C104.23 9.28282 104.712 9.23831 105.151 9.19445V9.19445ZM105.151 1.043C108.569 1.17461 111.725 1.87588 111.725 6.25837C111.725 8.53767 110.278 10.4221 107.868 10.7286C108.876 10.8602 109.49 11.8686 109.84 12.7453L112.865 20.2826H108.657L106.378 14.235C106.028 13.3582 105.721 12.8318 105.151 12.5253C104.845 12.3505 104.363 12.2621 103.748 12.2621H102.521V20.2826H98.752V0.999129H102.827C103.572 0.999129 104.405 0.999129 105.151 1.043ZM70.0442 6.78417C70.4823 7.9235 70.701 9.19508 70.701 10.6415C70.701 12.0002 70.4823 13.315 70.0442 14.4982C68.6855 18.222 65.3985 20.6336 60.885 20.6336C54.8368 20.6336 50.9795 16.5136 50.9795 10.6409C50.9795 4.72357 54.9239 0.692042 60.885 0.692042C65.3985 0.692042 68.6855 3.05908 70.0442 6.78417V6.78417ZM70.0442 2.70813L76.7066 20.2826H78.1086L85.5155 0.999129H81.5704L77.6266 11.1667L73.4196 0.999129H69.3874L70.0442 2.70813V2.70813ZM86.48 0.999129H97.6991V4.11068H90.2922V8.84412H97.0411V11.8234H90.2928V17.2588H97.7436V20.2826H86.4806V0.999129H86.48V0.999129ZM8.02812 4.41776C7.37071 4.19842 6.66944 4.11068 5.9688 4.11068H3.8211V17.2588H5.9688C6.67007 17.2588 7.37135 17.1272 8.02812 16.9085C10.3513 16.0749 12.2358 13.9279 12.2358 10.6847C12.2364 7.44157 10.3513 5.20614 8.02812 4.41776V4.41776ZM17.6705 0.999129H21.4833V20.2826H17.6705V0.999129ZM33.7114 6.12676C32.3966 5.29388 30.9947 4.461 29.5044 4.28616C28.1457 4.11068 26.6993 4.50487 26.6993 6.43321C26.6993 9.76411 35.0269 8.36156 35.0269 14.8046C35.0269 19.0117 31.696 21.0716 27.8832 20.6336C25.8232 20.4136 24.64 19.8 23.0181 18.7052V14.7601C24.2897 15.462 26.1735 16.8201 27.6638 17.0833C29.2857 17.3465 31.0386 16.8633 31.0386 15.1111C31.0386 11.386 22.7555 12.9195 22.7555 6.56419C22.7555 2.26943 25.9987 0.691406 29.3296 0.691406C30.9953 0.691406 32.4411 1.30494 33.7121 2.44427V6.12676H33.7114V6.12676ZM50.015 18.3543C49.0505 19.5826 46.7718 20.2826 45.2377 20.4142C39.321 20.809 35.3766 17.522 35.3766 10.9918C35.3766 4.41776 38.8391 0.56107 45.2377 0.912025C46.5086 0.955894 48.5685 1.39395 49.9272 2.53328V6.21514C48.3053 5.20741 46.6402 4.50614 45.2377 4.46227C41.3371 4.33066 39.321 6.7848 39.321 10.7292C39.321 14.6743 41.2055 16.8646 45.2377 16.6898C46.815 16.6465 49.1821 15.3749 50.015 14.6743V18.3543V18.3543Z" fill="#E0E0E0"/>
</svg>
